<svg xmlns="http://www.w3.org/2000/svg" >
  <symbol id="apple" viewBox="0 0 1024 1024">
    <path d="M359.612 287.101c-67.154 7.126-118.967 74.586-139.36 115.568-94.098 189.508 149.126 490.461 237.423 470.383 13.471-3.058 27.419-14.276 58.214-17.177 42.772-4.034 65.714 12.996 91.548 15.975 56.243 6.492 107.115-55.994 142.759-99.762 40.201-49.366 157.161-192.987 112.667-346.601-7.229-24.926-25.641-88.545-85.577-123.419-3.875-2.266-74.722-42.181-141.23-17.233-25.142 9.427-34.478 22.524-65.714 27.193-28.801 4.306-49.648-2.266-72.514-7.93-37.038-9.087-101.382-20.903-138.217-16.995z" fill="#FA1919" />
    <path d="M751.795 634.281c-18.321 82.416-92.907 173.861-163.733 176.921-26.15 1.133-42.953-10.198-80.501-1.734-49.943 11.228-93.587 47.7-88.658 61.534 3.398 9.427 29.198 8.102 31.724 7.93 28.972-1.711 36.438-20.394 59.063-23.045 25.686-2.991 36.608 18.717 61.817 27.193 42.737 14.343 90.822-21.38 117.664-41.322 94.041-69.851 220.553-251.405 170.292-428.279-8.838-31.102-25.062-85.158-76.988-118.683-43.905-28.325-115.419-43.213-139.45-15.862-44.788 50.917 145.683 189.316 108.77 355.347z" fill="#C40000" />
    <path d="M598.237 907.506c-0.121 0.001-0.263 0.002-0.407 0.002-6.681 0-13.12-1.035-19.165-2.957-7.881-2.506-15.246-6.969-22.359-11.287-12.032-7.298-23.407-14.196-41.127-14.73-18.423-0.577-31.294 6.278-43.769 12.893-6.969 3.705-13.597 7.194-20.903 9.393-59.551 17.778-151.461-58.747-216.123-142.476-3.329-3.92-5.354-9.037-5.354-14.628 0-12.515 10.146-22.661 22.661-22.661 7.615 0 14.352 3.757 18.461 9.517 72.401 93.758 143.691 133.878 167.337 126.82 3.037-0.907 7.693-3.398 12.61-5.993 15.206-8.066 36.019-19.125 66.453-18.128 29.617 0.929 49.025 12.701 63.2 21.301 5.042 3.058 9.812 5.948 12.939 6.934 18.128 5.722 73.646-20.1 140.075-95.435 48.505-54.974 87.174-118.831 108.871-179.798 31.521-88.557 19.261-148.346 3.398-182.915-10.311-22.457-27.193-46.759-45.15-65.013-16.122-16.383-41.921-36.935-73.329-41.74-38.602-5.914-103.829 8.43-132.925 16.838-3.093 0.895-6.141 1.813-9.212 2.741-18.411 5.552-39.27 11.851-68.559 12.226-29.957 0.386-50.793-5.438-70.95-11.069-3.172-0.883-6.368-1.779-9.597-2.639-31.001-8.304-93.145-21.097-129.458-16.406-60.729 7.84-106.277 70.79-121.868 102.98-14.809 30.593-19.918 66.531-15.182 106.934 4.373 37.389 16.995 77.702 37.389 119.793 1.433 2.889 2.27 6.289 2.27 9.885 0 12.517-10.147 22.663-22.663 22.663-8.921 0-16.637-5.153-20.335-12.646-22.719-46.801-36.678-91.987-41.641-134.439-5.744-49.129 0.794-93.532 19.42-131.974 20.722-42.748 77.045-117.833 156.854-128.155 52.243-6.798 131.611 13.461 146.998 17.585 3.398 0.907 6.742 1.849 10.073 2.777 18.638 5.212 34.716 9.71 58.158 9.404 22.898-0.294 39.010-5.155 56.062-10.3 3.229-0.974 6.457-1.948 9.722-2.889 9.597-2.775 95.354-26.829 152.368-18.128 34.58 5.292 68.74 24.224 98.777 54.746 2.050 2.074 6.368 6.278 11.919 12.464 0 0 25.674 28.847 42.114 65.409 16.779 37.299 25.742 122.082-1.054 214.785-27.883 96.409-82.982 161.703-118.366 196.816 0 0-30.705 43.927-96.443 85.486-27.465 17.313-51.607 26.014-72.185 26.014z" fill="#000000" />
    <path d="M217.521 717.42c-8.050-0.007-15.116-4.211-19.132-10.54l-0.697-1.106c-2.14-3.396-3.409-7.526-3.409-11.953 0-12.515 10.146-22.661 22.661-22.661 7.989 0 15.011 4.134 19.047 10.381l0.677 1.087c2.193 3.427 3.494 7.606 3.494 12.089 0 12.509-10.134 22.649-22.642 22.661z" fill="#000000" />
    <path d="M773.253 190.5c3.116-19.625-59.257-62.146-112.621-48.889-76.83 19.079-100.487 145.027-84.365 155.223 10.797 6.798 34.284-41.593 107.014-73.941 53.546-23.759 87.707-18.377 89.972-32.393z" fill="#6BE166" />
    <path d="M566.863 320.22c-5.234-0.011-10.101-1.577-14.165-4.26-13.867-8.769-18.251-28.054-13.267-58.838 6.98-43.191 36.823-120.723 104.407-137.502 44.029-10.934 94.381 8.418 121.358 33.197 18.502 16.995 20.587 31.815 19.081 41.264-1.269 7.93-6.062 18.843-21.641 25.187-6.379 2.605-13.675 4.192-22.898 6.198-14.615 3.185-34.637 7.546-58.577 18.186-39.792 17.697-63.302 40.482-78.87 55.518-6.096 5.914-10.922 10.582-15.76 14.060-3.547 2.605-10.922 6.991-19.669 6.991zM670.681 161.723c-0.067 0-0.146 0-0.226 0-5.551 0-10.942 0.685-16.091 1.977-23.542 5.863-39.926 26.598-49.398 42.958-12.317 21.039-20.479 45.925-22.708 72.5 41.782-61.22 88.203-85.409 139.611-95.883-31.746 6.784-8.667 1.595 6.878-1.805-12.076-8.835-26.563-15.137-42.285-17.817 14.842 3.257 0.228-1.932-15.783-1.932z" fill="#000000" />
    <path d="M504.989 325.749c-8.871-4.804-14.559-20.961-9.449-30.593 4.85-9.177 15.228-33.356 6.923-59.631-4.255-13.045-11.831-24.030-21.741-32.318 5.017 4.343 2.992-0.775 2.992-6.368 0-12.519 10.148-22.669 22.669-22.669 6.927 0 13.129 3.107 17.286 8.002 13.689 16.021 23.085 36.035 26.237 58.061 1.583 0.016 12.902 51.658-14.302 76.086-7.943 7.115-21.811 14.219-30.614 9.427z" fill="#000000" />
  </symbol>

  <symbol id="cherry" viewBox="0 0 1024 1024">
    <path d="M310.509 611.832c-11.976-0.012-21.838-9.046-23.157-20.67-12.503-113.655 7.585-205.17 59.705-272.093 48.154-61.825 120.327-98.478 188.896-120.572-38.344-14.266-74.857-36.933-108.989-67.659-4.754-4.291-7.729-10.474-7.729-17.352 0-12.892 10.451-23.343 23.343-23.343 6.013 0 11.496 2.273 15.635 6.009 40.108 36.144 83.526 59.3 129.056 68.725 30.108 6.252 59.096 6.182 82.543 4.246 11.199-1.516 21.127-2.671 29.443-3.606 5.25-0.828 9.764-1.644 13.45-2.332 3.861-0.688 6.917-1.237 9.332-1.563 19.423-2.578 27.367 10.499 28.988 18.665 0.29 1.387 0.456 2.981 0.456 4.614 0 5.23-1.703 10.064-4.584 13.975-6.207 8.485-15.201 9.745-21.15 10.574-3.675 0.513-8.55 1.049-14.722 1.726l-5.412 0.595c-8.737 1.377-19.259 2.812-31.147 3.827-78.157 10.732-218.572 39.557-290.664 132.144-44.398 57.020-61.266 137.16-50.161 238.217 0.088 0.762 0.138 1.644 0.138 2.539 0 11.961-8.999 21.817-20.595 23.171-0.908 0.107-1.835 0.162-2.775 0.162z" fill="#000000" />
    <path d="M511.152 764.682c-0.326 71.345-65.151 124.503-125.67 137.102-81.435 16.938-180.333-34.261-191.626-114.984-11.664-83.256 74.529-164.935 163.314-163.314 74.81 1.365 154.32 61.897 153.982 141.196z" fill="#EA3425" />
    <path d="M427.29 886.794c-56.986 32.966-127.957 31.158-132.424 16.751-6.124-19.762 119.663-41.074 159.639-139.867 20.718-51.175 7.851-97.078 19.481-98.968 12.832-2.089 43.068 51.141 37.132 105.675-7.688 70.669-72.476 109.852-83.828 116.407z" fill="#C40000" />
    <path d="M331.192 933.875h-3.5c-48.073-0.887-97.672-19.224-136.169-50.359-42.87-34.774-66.912-81.424-67.659-131.363-0.699-47.827 20.123-93.975 58.653-129.834 34.785-32.383 80.712-53.17 125.985-57.067 30.902-2.648 63.506 2.602 94.291 15.166 44.031 18.345 80.123 48.382 105.386 86.26 12.071 6.758 31.564 57.794 26.093 106.217-5.063 44.935-30.844 86.591-72.569 117.317-37.714 27.892-85.099 43.663-130.511 43.663zM324.286 611.236q-5.927 0-11.77 0.502c-35.101 3.010-70.89 19.318-98.186 44.725-28.744 26.749-44.329 60.485-43.792 95.002 1.167 78.356 84.212 134.419 158.029 135.726 36.43 0.629 74.89-11.911 105.502-34.448 31.146-22.922 50.277-53.1 53.871-84.97 3.896-34.518-10.883-71.788-40.549-102.258-33.234-34.121-79.452-54.278-123.103-54.278zM511.152 770.398z" fill="#000000" />
    <path d="M868.109 647.819c-0.443 60.8-56.669 104.334-108.487 111.157-69.898 9.192-144.405-46.661-144.953-110.669-0.595-68.918 84.69-127.151 157.097-111.392 47.011 10.196 96.799 53.346 96.343 110.903z" fill="#EA3425" /><path d="M828.168 730.409c-51.129 42.345-127.034 35.568-131.748 20.356-5.833-18.968 102.375-39.825 121.669-117.084 12.027-48.167-17.824-88.912-7.058-94.64 11.081-5.89 54.664 30.983 62.841 79.978 7.431 44.55-16.436 87.139-45.704 111.392z" fill="#C40000" />
    <path d="M731.019 788.293c-48.026 0-96.705-21.768-131.947-59.492-32.394-34.623-47.898-77.855-42.533-118.601 5.098-38.74 28.265-73.946 65.243-99.155 34.145-23.273 76.617-35.113 116.513-32.488 37.784 2.484 76.536 17.918 106.318 42.367 34.087 27.997 53.766 65.489 55.421 105.63 1.715 41.68-15.806 81.821-49.321 113.025-30.237 28.161-70.191 45.774-109.583 48.307q-5.051 0.409-10.114 0.409zM727.136 524.925c-29.87 0.298-57.482 9.72-80.25 25.604-24.667 16.811-40.743 40.492-44.091 65.875-3.5 26.83 7.523 56.239 30.329 80.63 27.868 29.782 68.090 46.812 104.987 44.422 28.417-1.832 58.619-15.247 80.795-35.894 23.389-21.779 35.638-49.111 34.494-76.99-1.4-34.192-21.651-57.743-38.391-71.473-22.094-18.162-51.887-30.085-79.767-31.858q-4.036-0.315-8.107-0.315z" fill="#000000" />
    <path d="M619.639 565.228c-0.014 0-0.031 0-0.047 0-4.279 0-8.286-1.157-11.727-3.173-39.119-23.146-70.783-55.345-92.696-93.82 8.208 20.296-12.812-16.358-23.766-57.42-27.052-101.488 19.959-181.804 34.996-204.014 4.239-6.332 11.363-10.444 19.448-10.444 12.886 0 23.331 10.446 23.331 23.331 0 4.972-1.554 9.579-4.206 13.365-8.676 12.757-51.032 81.267-28.508 165.735 19.971 74.857 77.598 112.989 94.792 122.894 7.033 4.107 11.685 11.618 11.685 20.216 0 12.886-10.446 23.331-23.331 23.331-0.007 0-0.013 0-0.021 0z" fill="#000000" />
  </symbol>

  <symbol id="grape" viewBox="0 0 1024 1024">
    <path d="M799.165 406.046c0.302 52.799-40.753 108.907-96.231 108.638-54.985-0.271-95.227-55.798-95.227-107.966 0-52.016 39.99-107.705 95.227-107.966s95.93 55.187 96.231 107.294z" fill="#713FCC" />
    <path d="M703.327 534.753h-0.491c-31.705-0.161-61.385-14.996-83.581-41.786-20.061-24.243-31.605-55.678-31.605-86.26s11.475-61.947 31.494-86.169c22.177-26.841 51.907-41.706 83.703-41.856s61.746 14.464 84.194 41.125c20.282 24.071 32.017 55.497 32.197 86.079 0.202 34.905-14.644 70.723-39.719 95.818-21.284 21.335-48.326 33.050-76.191 33.050zM703.327 318.813h-0.291c-19.69 0.091-38.496 9.789-52.959 27.293-13.961 16.901-22.308 39.559-22.308 60.613s8.364 43.742 22.378 60.653c14.483 17.483 33.27 27.161 52.889 27.262 22.067 0.121 38.345-11.484 48.085-21.233 17.403-17.412 28.086-43.13 27.984-67.203-0.121-21.065-8.636-43.671-22.778-60.493-14.574-17.372-33.391-26.901-53.009-26.901z" fill="#000000" />
    <path d="M727.007 604.023c0.331 52.799-40.793 108.908-96.231 108.638-54.985-0.271-95.227-55.798-95.227-107.966 0-52.016 39.99-107.705 95.227-107.966s95.929 55.187 96.231 107.294z" fill="#713FCC" />
    <path d="M631.168 732.72h-0.491c-31.705-0.161-61.385-15.046-83.582-41.786-20.061-24.244-31.606-55.678-31.606-86.26s11.475-61.947 31.494-86.169c22.178-26.841 51.907-41.707 83.703-41.856s61.746 14.464 84.194 41.125c20.282 24.071 32.017 55.497 32.197 86.079 0.202 34.905-14.644 70.724-39.719 95.818-21.284 21.344-48.326 33.050-76.191 33.050zM631.168 516.779h-0.291c-19.689 0.091-38.496 9.789-52.959 27.292-13.961 16.901-22.308 39.559-22.308 60.613s8.365 43.742 22.378 60.653c14.483 17.483 33.27 27.161 52.889 27.262 22.067 0.13 38.345-11.484 48.085-21.233 17.403-17.412 28.086-43.131 27.984-67.203-0.121-21.063-8.636-43.671-22.778-60.492-14.575-17.362-33.391-26.891-53.009-26.891z" fill="#000000" />
    <path d="M484.678 601.876c0.302 52.799-40.753 108.907-96.231 108.638-54.995-0.231-95.227-55.798-95.227-107.977 0-52.016 39.99-107.705 95.227-107.966s95.929 55.227 96.231 107.303z" fill="#7C45E0" />
    <path d="M388.838 730.574h-0.521c-31.705-0.161-61.385-14.996-83.581-41.786-20.061-24.244-31.605-55.678-31.605-86.26s11.475-61.947 31.494-86.169c22.178-26.841 51.907-41.707 83.703-41.856h0.482c31.665 0 61.375 14.603 83.712 41.125 20.282 24.071 32.017 55.497 32.187 86.079 0.202 34.905-14.644 70.724-39.719 95.818-21.244 21.344-48.285 33.050-76.15 33.050zM388.838 514.633h-0.281c-19.69 0.091-38.496 9.789-52.959 27.292-13.982 16.901-22.317 39.569-22.317 60.613s8.364 43.742 22.378 60.653c14.483 17.483 33.27 27.161 52.889 27.262 22.067 0.13 38.345-11.484 48.085-21.233 17.403-17.412 28.086-43.131 27.984-67.203-0.121-21.063-8.636-43.671-22.778-60.492-14.575-17.362-33.391-26.891-53.009-26.891z" fill="#000000" />
    <path d="M416.281 406.046c5.267 58.667-53.662 117.906-96.231 108.638-33.28-7.242-53.050-55.587-51.706-93.633 1.495-42.217 29.86-96.561 72.539-97.474 38.858-0.833 71.857 43.010 75.398 82.469z" fill="#884CF6" />
    <path d="M416.281 406.046c-2.548 65.558-87.322 106.882-95.287 99.38-6.079-5.738 35.306-37.492 43.13-98.889 6.841-53.591-17.142-88.527-8.708-92.901 10.421-5.386 62.919 39.458 60.863 92.409z" fill="#713FCC" />
    <path d="M320.442 534.753h-0.491c-31.705-0.161-61.385-14.996-83.582-41.786-20.080-24.253-31.605-55.689-31.605-86.26 0-0.002 0-0.003 0-0.005 0-11.079 8.981-20.061 20.060-20.061 11.079 0 20.061 8.981 20.061 20.061 0 0.002 0 0.004 0 0.005 0 21.063 8.364 43.741 22.378 60.652 14.483 17.483 33.27 27.162 52.85 27.273 22.067 0.121 38.345-11.484 48.085-21.233 17.403-17.412 28.086-43.131 27.984-67.203-0.119-21.065-8.636-43.673-22.778-60.492-14.644-17.412-33.561-26.941-53.29-26.862-12.788 0.060-24.946 4.013-36.108 11.735-3.184 2.219-7.131 3.547-11.389 3.547-11.079 0-20.061-8.981-20.061-20.061 0-6.821 3.405-12.847 8.606-16.471 16.609-11.753 37.183-18.79 59.394-18.874 31.274-0.117 61.164 14.467 83.612 41.127 20.282 24.071 32.017 55.497 32.187 86.079 0.202 34.905-14.644 70.723-39.719 95.818-21.284 21.294-48.325 33.009-76.191 33.009z" fill="#000000" />
    <path d="M237.472 375.222c-11.070-0.011-20.041-8.989-20.041-20.061 0-3.293 0.794-6.399 2.198-9.141q0.699-1.381 1.492-2.896c3.451-6.355 10.074-10.597 17.689-10.597 11.079 0 20.061 8.981 20.061 20.061 0 3.466-0.878 6.726-2.425 9.569q-0.509 0.897-1.050 2.010c-3.373 6.608-10.13 11.054-17.924 11.054z" fill="#000000" />
    <path d="M628.651 755.669c0.39 64.043-49.43 132.148-116.722 131.777-22.729-0.111-43.371-8.025-60.723-20.862-17.27-12.967-30.907-29.862-39.719-49.403q17.483 28.189 16.178 26.565c-14.913-18.608-25.404-41.385-29.521-66.309 1.845 13.837-1.697-3.474-1.726-21.609 0.004-62.417 48.509-129.97 115.511-130.291s116.361 66.942 116.722 130.132z" fill="#884CF6" />
    <path d="M608.39 681.146c-1.746 24.353-53.532 45.929-97.143 40.602s-88.948-38.967-84.495-63.371c4.172-22.88 51.415-34.464 85.167-32.848 45.847 2.197 98.297 30.262 96.471 55.617z" fill="#713FCC" />
    <path d="M622.512 786.834c-21.395 74.474-110.634 110.112-119.018 100.613-7.242-8.194 51.796-42.99 61.797-115.137 7.422-53.582-16.72-95.125-0.833-104.505 10.672-6.298 30.482 7.181 40.642 17.423 35.417 35.687 18.596 97.485 17.412 101.606z" fill="#713FCC" />
    <path d="M512.4 907.508h-0.572c-37.172-0.18-72.017-17.633-98.117-49.148-23.741-28.646-37.353-65.789-37.353-101.888s13.571-73.171 37.222-101.797c26.078-31.565 60.974-49.047 98.297-49.228s72.438 17.051 98.839 48.406c23.972 28.507 37.835 65.568 38.045 101.687 0.242 41.213-17.303 83.522-46.932 113.171-25.045 25.045-56.772 38.797-89.43 38.797zM512.4 645.578h-0.371c-25.165 0.119-49.148 12.427-67.514 34.655-17.554 21.244-28.035 49.749-28.035 76.23s10.512 55.035 28.086 76.289c18.385 22.197 42.337 34.484 67.423 34.614h0.401c28.086 0 48.647-14.675 60.974-27.011 21.886-21.906 35.366-54.314 35.196-84.585-0.151-26.51-10.852-54.956-28.637-76.1-18.466-21.986-42.448-34.093-67.534-34.093z" fill="#000000" />
    <path d="M628.651 551.153c8.335 66.351-46.329 132.158-116.722 131.777-68.887-0.371-123.713-63.973-115.508-130.965 7.202-58.766 60.995-104.505 121.577-101.757 56.791 2.578 103.883 47.061 110.653 100.944z" fill="#884CF6" />
    <path d="M613.615 490.21c3.511 25.207-45.758 61.826-93.433 60.934-56.169-1.003-107.324-54.164-99.3-79.359 9.027-28.286 92.971-21.917 97.143-21.564 26.22 2.167 91.766 12.628 95.588 39.99z" fill="#713FCC" />
    <path d="M619.603 603.962c-20.561 49.399-71.063 80.554-81.246 72.579-10.762-8.386 33.963-51.164 34.515-121.727 0.592-74.695-48.827-121.938-37.462-130.914 9.629-7.602 52.7 20.313 75.478 60.965 3.551 6.369 32.929 60.924 8.717 119.099z" fill="#713FCC" />
    <path d="M512.4 702.99h-0.572c-37.172-0.18-72.017-17.633-98.117-49.148-23.741-28.646-37.353-65.789-37.353-101.888s13.571-73.171 37.222-101.798c26.078-31.565 60.974-49.049 98.297-49.228s72.438 17.051 98.839 48.406c23.972 28.507 37.835 65.568 38.045 101.687 0.242 41.213-17.303 83.522-46.932 113.171-25.045 25.025-56.772 38.797-89.43 38.797zM512.4 441.061h-0.371c-25.165 0.119-49.148 12.427-67.514 34.655-17.554 21.244-28.035 49.749-28.035 76.23s10.512 55.035 28.086 76.289c18.385 22.197 42.337 34.484 67.423 34.614h0.401c28.086 0 48.647-14.675 60.974-27.011 21.886-21.906 35.366-54.314 35.196-84.585-0.151-26.51-10.852-54.956-28.637-76.1-18.466-21.986-42.448-34.093-67.534-34.093z" fill="#000000" />
    <path d="M608.049 406.046c0.302 52.799-40.753 108.907-96.231 108.638-54.985-0.271-95.227-55.798-95.227-107.966 0-52.016 39.99-107.705 95.227-107.966s95.929 55.187 96.231 107.294z" fill="#FFFFFF" /><path d="M608.049 406.046c6.32 58.085-51.225 117.253-96.231 108.649-31.977-6.119-52.158-45.407-55.849-76.23-6.019-50 27.443-111.918 73.643-113.222 38.527-1.073 74.044 40.352 78.436 80.803z" fill="#884CF6" />
    <path d="M608.049 406.046c-1.163 69.76-88.165 115.82-96.231 108.638-6.238-5.546 37.362-40.522 43.922-105.237 5.939-58.587-23.001-96.842-14.514-101.606 10.201-5.738 67.755 40.813 66.821 98.206z" fill="#713FCC" />
    <path d="M512.209 534.753h-0.521c-31.705-0.161-61.385-14.996-83.582-41.786-20.060-24.243-31.606-55.678-31.606-86.26s11.475-61.947 31.494-86.169c22.178-26.841 51.907-41.706 83.703-41.856s61.746 14.464 84.194 41.125c20.282 24.071 32.017 55.497 32.187 86.079 0.202 34.905-14.644 70.723-39.719 95.818-21.244 21.335-48.285 33.050-76.15 33.050zM512.209 318.813h-0.291c-19.689 0.091-38.497 9.789-52.959 27.293-13.961 16.901-22.308 39.559-22.308 60.613s8.364 43.742 22.378 60.653c14.483 17.483 33.27 27.161 52.889 27.262 22.067 0.121 38.346-11.484 48.086-21.233 17.403-17.412 28.086-43.13 27.984-67.203-0.119-21.065-8.636-43.671-22.778-60.493-14.575-17.372-33.391-26.901-53.009-26.901z" fill="#000000" />
    <path d="M324.252 172.361c5.125-21.696 76.642-33.761 131.337-8.225 34.353 16.049 69.601 50.433 62.418 68.206-8.455 20.933-75.227 17.693-124.686-2.899-27.363-11.374-73.553-38.105-69.068-57.082z" fill="#6BE166" /><path d="M476.311 266.625c-7.956-0.027-15.77-0.501-23.453-1.396-30.985-3.463-60.683-12.691-87.596-26.567 2.683 1.954-16.223-8.518-30.215-18.688-9.027-6.549-36.4-26.469-30.311-52.227 1.825-7.733 7.583-18.676 24.634-26.931 29.439-14.294 86.65-17.303 134.706 5.146 32.416 15.664 58.793 39.439 77.168 68.745 0.246-5.111-0.055 13.825-4.639 25.17-2.517 6.238-8.355 14.865-21.805 20.492-11.374 4.754-25.327 6.259-38.486 6.259zM346.53 177.045c2.688 3.009 7.834 7.804 17.493 14.213 26.617 17.628 58.173 30.132 92.14 35.313-32.545-6.177-6.327-0.441 21.162 0.123 4.624 0.665 15.066-1.061 20.131-2.656-1.897-3.541-5.948-9.328-13.772-16.73-18.477-17.341-41.622-29.919-67.348-35.652 11.481 1.628-12.944-2.825-36.254-1.661-16.65 0.833-27.875 4.282-33.55 7.052zM324.252 172.361z" fill="#000000" />
    <path d="M535.089 322.112c-0.009 0-0.022 0-0.034 0-7.143 0-13.415-3.734-16.969-9.356-8.393-13.442-26.999-49.433-19.609-94.918 10.201-62.519 60.754-93.321 70.793-98.848 2.65-1.378 5.786-2.188 9.111-2.188 11.079 0 20.060 8.981 20.060 20.060 0 7.289-3.888 13.671-9.702 17.183-7.271 4.062-43.471 26.018-50.652 70.182-5.206 32.037 8.025 57.634 13.993 67.143 1.933 3.029 3.081 6.721 3.081 10.683 0 11.079-8.981 20.061-20.061 20.061-0.005 0-0.007 0-0.012 0z" fill="#000000" />
  </symbol>

  <symbol id="strawberry" viewBox="0 0 1024 1024">
    <path d="M250.885 645.796c-29.512 102.738-56.448 135.654-37.15 163.341 7.526 10.808 21.214 19.544 103.098 26.14 80.035 6.44 120.053 9.654 167.44 2.99 33.6-4.715 181.441-25.525 287.068-143.853 21.382-23.957 55.519-63.101 71.153-124.881 4.569-18.077 15.277-62.295 3.797-110.881-19.375-82.219-90.025-125.9-172.235-176.625-95.738-59.159-154.875-95.692-227.843-78.076-83.9 20.295-127.043 97.933-131.241 105.773-21.683 40.422-10.763 54.063-29.12 168.818-7.908 49.292-16.508 103.017-34.966 167.251z" fill="#FA1919" />
    <path d="M432.55 206.418l-2.061 0.56c9.34 12.589 31.786 28.124 44.868 37.173 41.182 28.483 60.638 26.432 69.968 47.040 12.544 27.629-11.848 55.217-1.322 63.952 15.971 13.25 72.050-50.197 103.567-33.981 24.292 12.499 17.674 63.84 34.474 66.136 13.182 1.759 21.034-29.356 37.587-28.493 13.821 0.717 16.98 22.647 37.049 44.51 24.125 26.275 62.889 41.72 71.3 33.242 5.029-5.073 1.119-20.665-8.848-40.667-28.998-22.401-74.437-48.283-146.922-93.106-176.86-102.536-210.818-103.779-239.659-96.365z" fill="#C40000" />
    <path d="M278.751 826.452c3.483 19.645 94.081 18.872 130.85 16.8 29.703-1.657 126.93-10.079 242.314-80.393 75.891-46.222 203.841-124.152 208.118-242.816 1.948-53.994-29.635-102.638-38.227-116.862-5.209-8.624-54.982-91-84.806-82.208-37.342 11.054 20.239 146.183-32.189 261.353-88.447 194.209-432.825 205.891-426.061 244.127z" fill="#C40000" />
    <path d="M484.271 391.55c0.001 0 0.001 0 0.002 0.001 8.735 3.128 19.198-3.778 23.367-15.427 4.17-11.648 0.469-23.625-8.266-26.753-0.001 0-0.001 0-0.002-0.001 0 0-0.001 0-0.002-0.001-8.735-3.128-19.198 3.778-23.367 15.427-4.17 11.648-0.47 23.625 8.266 26.753 0.001 0 0.001 0 0.002 0.001z" fill="#C40000" />
    <path d="M366.541 720.177c0.001 0.001 0.002 0.002 0.003 0.003 6.861 6.248 19.175 3.895 27.503-5.252 8.329-9.147 9.519-21.627 2.66-27.874-0.001-0.001-0.002-0.002-0.003-0.003-0.001-0.001-0.002-0.002-0.003-0.002-6.861-6.247-19.175-3.896-27.503 5.252-8.329 9.147-9.519 21.627-2.659 27.874 0.001 0.001 0.002 0.002 0.003 0.003z" fill="#C40000" />
    <path d="M497.13 605.466c0 0 0.001 0 0.001 0 8.852 2.784 19.034-4.526 22.747-16.327 3.712-11.802-0.455-23.625-9.305-26.408 0 0-0.001 0-0.001 0 0 0-0.001 0-0.001 0-8.852-2.784-19.034 4.526-22.748 16.327-3.712 11.802 0.455 23.625 9.305 26.408s0.001 0 0.001 0z" fill="#C40000" />
    <path d="M711.627 494.216c0.001 0.001 0.002 0.002 0.003 0.003 6.861 6.248 19.175 3.895 27.503-5.252 8.329-9.148 9.519-21.627 2.66-27.874-0.001-0.001-0.002-0.002-0.003-0.003-0.001-0.001-0.002-0.002-0.003-0.002-6.861-6.248-19.175-3.896-27.503 5.252-8.329 9.148-9.519 21.627-2.659 27.874 0.001 0.001 0.002 0.002 0.003 0.003z" fill="#C40000" />
    <path d="M643.381 587.473c0 0 0.001 0.001 0.001 0.001 6.861 6.248 19.174 3.895 27.503-5.252 8.329-9.148 9.519-21.627 2.659-27.874 0 0-0.001-0.001-0.001-0.001 0 0-0.001-0.001-0.001-0.001-6.861-6.248-19.174-3.896-27.503 5.252-8.329 9.148-9.519 21.627-2.659 27.874s0.001 0.001 0.001 0.001z" fill="#C40000" />
    <path d="M372.127 566.141c0.001 0 0.001 0 0.002 0.001 8.735 3.128 19.198-3.778 23.367-15.427 4.17-11.648 0.469-23.625-8.266-26.752-0.001 0-0.001 0-0.002-0.001 0 0-0.001 0-0.002-0.001-8.735-3.128-19.198 3.778-23.367 15.427-4.17 11.648-0.469 23.625 8.266 26.752 0.001 0 0.001 0 0.002 0.001z" fill="#C40000" />
    <path d="M399.171 311.244c0.001 0 0.001 0 0.002 0.001 8.735 3.128 19.198-3.778 23.367-15.427 4.17-11.648 0.47-23.625-8.266-26.752-0.001 0-0.001 0-0.002-0.001 0 0-0.001 0-0.002-0.001-8.735-3.128-19.198 3.778-23.367 15.427-4.17 11.648-0.469 23.625 8.266 26.752 0.001 0 0.001 0 0.002 0.001z" fill="#FFFFFF" />
    <path d="M366.541 720.177c0.001 0.001 0.002 0.002 0.003 0.003 6.861 6.248 19.175 3.895 27.503-5.252 8.329-9.147 9.519-21.627 2.66-27.874-0.001-0.001-0.002-0.002-0.003-0.003-0.001-0.001-0.002-0.002-0.003-0.002-6.861-6.247-19.175-3.896-27.503 5.252-8.329 9.147-9.519 21.627-2.659 27.874 0.001 0.001 0.002 0.002 0.003 0.003z" fill="#FFFFFF" />
    <path d="M497.13 605.466c0 0 0.001 0 0.001 0 8.852 2.784 19.034-4.526 22.747-16.327 3.712-11.802-0.455-23.625-9.305-26.408 0 0-0.001 0-0.001 0 0 0-0.001 0-0.001 0-8.852-2.784-19.034 4.526-22.748 16.327-3.712 11.802 0.455 23.625 9.305 26.408s0.001 0 0.001 0z" fill="#FFFFFF" />
    <path d="M747.192 490.473c0 0 0.001 0.001 0.001 0.001 6.861 6.248 19.174 3.896 27.503-5.252 8.329-9.148 9.519-21.627 2.66-27.874 0 0-0.001-0.001-0.001-0.001 0 0-0.001-0.001-0.001-0.001-6.861-6.248-19.174-3.895-27.503 5.252-8.329 9.148-9.519 21.627-2.659 27.874 0 0 0.001 0.001 0.001 0.001z" fill="#C40000" />
    <path d="M643.381 587.473c0 0 0.001 0.001 0.001 0.001 6.861 6.248 19.174 3.895 27.503-5.252 8.329-9.148 9.519-21.627 2.659-27.874 0 0-0.001-0.001-0.001-0.001 0 0-0.001-0.001-0.001-0.001-6.861-6.248-19.174-3.896-27.503 5.252-8.329 9.148-9.519 21.627-2.659 27.874s0.001 0.001 0.001 0.001z" fill="#FFFFFF" />
    <path d="M366.447 413.388c0.001 0 0.001 0 0.002 0.001 8.735 3.128 19.198-3.778 23.367-15.427 4.17-11.647 0.469-23.625-8.266-26.753-0.001 0-0.001 0-0.002-0.001 0 0-0.001 0-0.002-0.001-8.735-3.128-19.198 3.778-23.367 15.427-4.17 11.648-0.469 23.625 8.266 26.753 0.001 0 0.001 0 0.002 0.001z" fill="#C40000" />
    <path d="M371.654 882.789c-43.869 0-84.236-5.22-117.6-15.277-42.907-12.902-73.259-32.994-90.249-59.764-17.394-27.407-12.052-48.586-2.408-87.036 7.65-30.329 19.219-76.16 29.12-154.561 3.36-26.735 6.059-53.144 8.164-80.729 1.061-11.477 10.645-20.395 22.311-20.395 12.371 0 22.401 10.028 22.401 22.401 0 0.496-0.017 0.99-0.048 1.477-2.158 28.258-4.901 55.396-8.386 82.814-10.192 81.166-22.155 128.577-30.073 159.959-9.453 37.487-9.733 41.866-3.259 52.046 10.909 17.17 33.488 31.36 65.307 40.891 33.264 10.012 75.107 14.56 120.96 13.115 78.659-2.453 160.822-21.65 231.359-54.051 79.61-36.524 139.104-87.617 172.257-147.706 19.23-34.922 48.508-104.587 28.538-178.853-9.946-36.96-30.608-68.32-64.961-98.616-32.906-28.963-74.727-54.309-123.201-83.653-87.362-52.92-150.45-91.158-224.964-74.827-66.852 14.65-108.64 63.84-123.503 84.382-18.638 25.693-27.217 48.832-31.662 85.311-1.787 10.736-11.005 18.818-22.113 18.818-12.371 0-22.401-10.028-22.401-22.401 0-0.624 0.025-1.242 0.075-1.852 5.315-43.7 16.863-74.479 39.855-106.187 17.92-24.639 68.32-83.9 150.181-101.843 91.975-20.149 165.122 24.181 257.735 80.282 48.16 29.176 93.654 56.738 129.55 88.335 41.328 36.379 66.316 74.705 78.669 120.613 24.058 89.432-10.079 171.272-32.558 212.096-37.766 68.555-104.419 126.247-192.753 166.859-75.847 34.843-164.159 55.484-248.642 58.117q-8.949 0.235-17.707 0.235z" fill="#000000" />
    <path d="M224.879 450.535h-1.299c-11.813-0.692-21.128-10.44-21.128-22.365 0-0.47 0.015-0.936 0.043-1.399l0.063-1.057c0.524-11.955 10.343-21.45 22.38-21.45 12.371 0 22.401 10.029 22.401 22.401 0 0.568-0.021 1.131-0.063 1.688l-0.063 1.046c-0.689 11.804-10.422 21.116-22.332 21.134z" fill="#000000" />
    <path d="M673.731 197.233c-22.87 16.027-52.886-10.079-120.165-26.23-53.603-12.847-120.098-16.8-125.507-1.119-4.345 12.544 30.957 36.961 48.811 49.281 41.182 28.483 60.638 26.432 69.968 47.040 12.544 27.63-11.848 55.217-1.322 63.953 15.971 13.251 72.050-50.197 103.567-33.981 24.293 12.499 17.674 63.84 34.474 66.136 13.205 1.713 21.045-29.411 37.587-28.549 13.821 0.717 16.98 22.647 37.049 44.51 24.125 26.275 62.889 41.72 71.3 33.242 11.379-11.48-22.803-76.957-70.897-125.44-38.663-39.009-77.112-57.758-72.016-79.61 4.222-18.134 34.395-21.113 35.156-40.746 0.481-12.017-10.18-25.121-18.256-24.484-13.63 1.119-7.84 40.567-29.748 56z" fill="#6BE166" />
    <path d="M758.606 286.039c-22.647-19.812-41.978-35.538-54.958-48.541-12.321-11.278-19.443-20.833-17.058-31.069 2.902-12.466 18.066-17.775 27.519-26.253 4.29-3.852 7.403-8.366 7.639-14.492v-0.739c-17.834 11.912-32.132 27.79-41.86 46.429 16.146-23.95 1.452-8.316-3.153 6.625-8.803 28.605 21.392 48.036 38.081 97.071 5.178 14.72 8.556 31.73 9.392 49.404l-3.019-30.689c13.821 0.717 16.98 22.647 37.050 44.51 24.125 26.275 62.889 41.72 71.3 33.242 11.334-11.502-22.837-76.978-70.93-125.497z" fill="#60C95B" />
  </symbol>
</svg>